Patient4_TMGait_0pt7_01_right_17_EMG.mot
version=1
nRows=30
nColumns=33
inDegrees=no
endheader
time	1LAddLong	2LGlutMax	3LGlutMed	4LIliopsoas	5LSemiMemb	6LBicFemLong	7LRecFem	8LVastMed	9LVastLat	10LGasMed	11LTibAnt	12lTibPost	13LPeroneusLong	14LSol	15LExtDigLong	16LFlexDigLong	17RAddLong	18RGlutMax	19RGlutMed	20RIliopsoas	21RSemiMemb	22RBicFemLong	23RRecFem	24RVastMed	25RVastLat	26RGasMed	27RTibAnt	28RTibPost	29RPeroneusLong	30RSol	31RExtDigLong	32RFlexDigLong
20.125	-0.013428	0.17578	0.12909	0.000458	-0.055695	0.07782	0.54474	0.018158	0.032196	0.019531	0.005646	-0.043793	0.000305	-0.18951	0.072784	-0.11917	0.051422	-0.085144	-0.54367	-0.016174	-0.26032	-0.030823	0.047302	-0.12299	-0.007629	0.001526	0.073395	0.00351	-0.21881	-0.11719	-0.002747	0.031433
20.126	0.019684	0.21072	0.1973	0.004425	-0.062103	-0.024872	0.51636	0.009155	0.020294	-0.001373	0.005951	-0.028687	0.002441	0.052643	0.014191	0.067749	0.012054	-0.080109	-0.60913	-0.04364	-0.23926	-0.023499	0.008392	-0.12573	-0.003357	0.005035	0.0177	-0.002289	-0.94681	-0.09079	-0.003052	0.041962
20.127	0.032043	0.23666	0.19898	-0.003052	0.006866	-0.12299	0.4866	-0.011902	0.047913	-0.036926	0.034943	-0.028534	0.000763	0.030518	-0.005341	-0.52811	0.026703	-0.039215	-0.41519	-0.041199	-0.28412	-0.041351	0.037384	-0.10101	0.003662	-0.010834	0.040894	-0.000153	-0.3981	0.024109	-0.007782	0.046387
20.128	0.034637	0.21316	0.23743	-0.01236	0.11154	-0.093689	0.4422	-0.008392	0.052032	-0.078125	0.05188	-0.031891	0.016174	-0.028229	0.003815	0.062561	0.055847	-0.036621	-0.10468	-0.016022	0.007324	-0.036011	0.006104	-0.045166	0.00824	-0.015259	0.027161	-0.000458	0.13092	0.064545	-0.000305	0.066376
20.129	0.025482	0.19867	0.23621	0.000763	0.1355	0.010681	0.45029	-0.001678	0.029144	-0.072937	0.031281	-0.022278	0.046997	-0.081635	-0.02655	0.034332	0.036926	-0.094757	0.019379	-0.055847	0.27237	-0.011444	-0.015259	0.058136	0.020905	-0.020142	0.074615	-0.000153	0.23544	-0.014954	-0.001526	0.068054
20.13	0.010223	0.20065	0.23224	0.005188	0.11002	0.054321	0.45548	-0.020599	0.042877	-0.088501	0.01236	-0.018311	-0.017395	0.11536	-0.061646	-0.00824	0.048218	-0.091553	-0.047913	-0.023804	0.053711	0.036469	0.009613	-0.040741	0.036011	-0.002289	-0.082397	-0.001373	0.16708	-0.056	-0.001221	0.070343
20.131	0.003357	0.20325	0.22995	-0.000916	0.056458	0.078888	0.46051	-0.010681	0.055084	-0.090027	0.045471	-0.023651	-0.033569	0.27496	-0.1181	-0.041046	0.022278	-0.12543	-0.13001	0.010071	-0.056152	0.10635	0.029907	-0.054169	0.026703	-0.001221	-0.046387	0.000763	0.23148	-0.062103	-0.000305	0.054321
20.132	-0.002136	0.18997	0.21561	-0.020294	0.019531	0.015869	0.44083	-0.010071	0.040741	-0.18707	0.040436	-0.016937	-0.060425	0.20493	-0.16327	-0.052643	-0.027466	-0.1059	0.053253	-0.016327	0.12009	0.10376	0.015106	-0.022583	0.038757	-0.015106	0.065308	0.000763	0.019836	-0.029602	-0.005341	0.053253
20.133	0.01297	0.16129	0.16052	0.006409	0.009308	-0.027313	0.44937	0.003662	0.042877	-0.28946	0.043335	-0.029755	-0.016327	0.25986	-0.076752	-0.047302	-0.032501	-0.1506	0.56412	0.002747	0.16968	0.10956	0.007172	-0.040741	0.036469	-0.022125	0.062866	-0.003357	-0.58289	-0.039215	-0.001221	0.046234
20.134	-0.011139	0.16007	0.15381	0.033417	0.031891	-0.055847	0.46967	0.010071	0.047302	-0.31464	0.015259	-0.026855	-0.032501	0.21973	-0.002289	-0.038605	0.001068	-0.15366	0.28275	0.023041	0.039368	0.093536	0.019073	-0.10361	0.039825	-0.015259	0.037842	0.00061	-0.45944	-0.072327	-0.003204	0.030823
20.135	0.012054	0.15823	0.14053	0.035095	0.035248	-0.039673	0.48798	0.006409	0.057983	-0.21896	0.003052	-0.017853	-0.034027	0.21286	-0.002899	-0.045319	-0.007629	-0.10254	0.12253	-0.012207	-0.01358	0.077972	0.012512	-0.081177	0.033722	-0.026093	0.046234	-0.005341	-0.24902	-0.061188	-0.002594	0.038147
20.136	0.021057	0.12848	0.061035	0.03952	0.038605	-0.057373	0.62637	0.001831	0.072632	-0.24002	-0.032959	-0.038757	-0.06012	0.058441	-0.004578	-0.052948	-0.058289	-0.036774	0.051117	-0.14816	-0.18112	0.075836	0.007172	-0.017395	0.060883	-0.036163	0.028839	-0.00351	0.18295	-0.022278	-0.005188	0.025177
20.137	0.011902	0.088196	0.058441	0.019684	0.026703	-0.045013	0.70496	0.001984	0.068817	-0.08194	-0.039215	-0.043793	-0.10101	-0.11337	0.032501	-0.080872	-0.098419	-0.083466	-0.12253	-0.21057	-0.061646	0.081177	-0.008545	0.075836	0.052795	-0.054321	-0.010529	-0.010681	0.28381	-0.005493	-0.001526	0.022278
20.138	-0.005188	0.13245	0.079651	0.012665	0.019989	-0.00412	0.71182	0.002441	0.028687	0.075226	-0.033264	-0.052032	-0.062103	-0.14923	0.060272	-0.081482	-0.09613	-0.049744	-0.087433	-0.15884	0.039063	0.10223	-0.011749	0.034027	0.022278	-0.057678	-0.01297	-0.001068	0.24307	-0.033722	-0.002441	0.020752
20.139	-0.00351	0.14999	0.12848	-0.009613	0.007629	0.076141	0.71732	-0.002441	0.023804	0.22751	-0.033875	-0.27451	-0.21301	0.20157	0.052032	-0.057831	-0.047455	-0.048065	-0.062561	-0.068207	-0.020142	-0.006256	0.025177	-0.035248	0.016479	-0.079956	0.031891	-0.002289	0.24307	-0.019073	-0.003357	0.019379
20.14	-0.006409	0.16296	0.13504	0.010223	-0.001221	0.099792	0.7431	-0.012054	0.010681	0.30533	-0.02594	0.079193	-0.11887	0.78934	0.053711	-0.021362	-0.010376	-0.032654	-0.18906	0.099487	0.006561	-0.065308	0.036621	-0.039673	0.012512	-0.11505	0.071564	0.002899	0.5365	-0.03067	-0.000153	0.019531
20.141	-0.000916	0.13138	0.074615	0.021362	0.046234	0.066071	0.75775	0.008392	-0.007935	0.63568	0.000763	0.42969	-0.055237	0.87143	0.031433	0.037384	-0.001068	-0.071869	-0.2681	0.23331	0.088959	-0.089417	0.028992	-0.062866	0.011902	-0.15457	0.083923	-0.004578	0.47409	-0.03418	-0.001373	0.026703
20.142	0.003967	0.12375	0.071411	0.021362	0.021057	0.029449	0.6308	0.011749	-0.035095	0.74463	0.005341	-0.31021	0.078735	-0.24323	0.005646	-0.005798	0.009308	-0.020599	-0.43366	0.25787	0.064545	-0.10513	0.00824	-0.11734	0.018158	-0.17456	0.061646	-0.00412	0.02594	-0.022125	-0.00351	0.023651
20.143	0.005188	0.12833	0.063934	0.005646	0.007172	-0.019226	0.57587	0.005188	0.059052	0.42709	0.005188	-0.062103	0.22888	-0.074768	-0.04776	0.069885	0.045929	-0.02594	-0.39368	0.15091	0.029449	-0.14786	0.040436	-0.079498	-0.000763	-0.16281	0.009308	-0.003662	-0.48767	-0.039825	-0.001373	0.018158
20.144	0.003967	0.10178	0.052795	0.007629	0.020599	-0.012054	0.52948	-0.002899	0.072632	-0.086823	0.012665	-0.06012	0.22492	0.085449	-0.041046	0.13733	0.058594	-0.023041	-0.56442	0.059967	-0.14358	-0.13687	0.035858	-0.067596	0.014191	-0.057373	-0.016785	-0.005951	-0.52658	-0.067596	-0.005341	0.015411
20.145	-0.004578	0.12482	0.028381	0.014496	0.018158	0.002136	0.54108	-0.002289	0.020142	-0.33402	0.01358	-0.044556	0.14557	0.13687	-0.043793	0.14633	0.05188	-0.04715	-0.34653	-0.007019	-0.33798	-0.10437	0.014191	-0.068665	0.016174	0.080109	0.035553	-0.002899	-0.289	0.02594	-0.000916	0.012665
20.146	-0.007324	0.14862	-0.019226	0.022888	0.003357	0.015411	0.52521	-0.002899	-0.10544	-0.28107	0.008392	-0.031281	0.1268	0.14343	-0.023041	-0.29144	0.027618	0.060425	0.44876	-0.1181	-0.33295	-0.08255	0.016632	-0.030975	0.03006	0.25711	0.014496	-0.001221	0.27725	0.063171	0.002136	0.020447
20.147	-0.001526	0.18204	-0.023041	-0.001373	0.004272	0.018463	0.51376	0.008087	0.001678	-0.23926	0.007019	0.095673	0.12192	-0.20706	-0.003662	0.37476	-0.016937	-0.013275	0.34134	-0.085602	-0.1445	-0.043488	0.005798	-0.014191	0.06073	0.38055	-0.059967	-0.004578	0.71259	-0.099335	-0.002136	0.023956
20.148	-0.001526	0.21057	0.052795	0.019073	0.015869	0.028992	0.54627	-0.003204	0.020447	-0.15213	0.009766	-0.089264	0.073395	-0.36743	0.00885	0.23193	-0.083313	-0.046844	0.47913	-0.019073	0.13657	0.06485	-0.002594	-0.016937	0.025177	0.38666	-0.043488	-0.00412	0.24246	-0.1033	-0.008087	0.025024
20.149	-0.001373	0.21637	-0.015869	0.025482	0.021362	0.051727	0.52506	0.001526	0.007629	0.003204	0.052795	0.15106	-0.050812	-0.019989	0.025635	-0.22964	-0.071716	-0.10773	0.25238	0.048218	0.21179	0.060577	-0.024261	0.023804	0.030212	0.29373	0.004578	-0.005646	-0.32623	-0.055237	-0.00412	0.023804
20.15	-0.00824	0.30182	-0.027924	0.003052	0.016479	0.059052	0.49896	0.002441	0.041809	0.11826	0.024872	0.061493	-0.17395	0.11704	0.050354	-0.065308	-0.042419	-0.014801	-0.1294	0.0737	0.078583	0.030823	-0.013885	-0.012207	0.026093	0.16861	0.018311	-0.001984	-0.14206	-0.015564	-0.002136	0.022278
20.151	-0.001373	0.30182	-0.020142	0.005646	0.017853	0.079041	0.54001	0.002594	0.046082	0.075226	-0.001984	-0.11032	-0.25604	0.25665	0.034027	0.075836	-0.030823	0.058289	-0.22492	0.065002	0.036621	0.041809	-0.04425	-0.020142	0.035553	0.089417	0.008392	-0.006409	-0.14511	0.007324	-0.00351	0.020599
20.152	-0.009155	0.289	-0.041809	0.005798	0.02594	0.079041	0.57587	-0.005188	0.066071	0.012817	0.032806	-0.038147	-0.1651	0.30731	-0.02121	-0.17746	-0.030975	0.054626	-0.47104	0.033112	-0.02121	0.001984	-0.020447	-0.02243	0.035095	0.034943	-0.003967	-0.006409	-0.32242	0.029297	0.004272	0.019531
20.153	-0.006409	0.22553	-0.05249	-0.001221	0.019226	0.039825	0.57632	-0.010223	0.054474	-0.088806	0.01236	-0.10788	-0.079193	0.097351	-0.032501	-1.4143	-0.010376	0.042572	-0.027924	0.00061	0.036011	-0.016937	-0.028381	-0.019684	0.025024	0.000305	0.006866	-0.006866	-0.26993	0.027313	-0.003967	0.020294
20.154	-0.007629	0.16556	-0.07309	0.002899	-0.018311	0.00061	0.61722	-0.007324	0.031128	-0.15381	0.016937	-0.15579	-0.022736	-0.003052	-0.015259	0.61645	-0.001221	0.022278	0.014496	-0.002899	0.077667	-0.031128	-0.007782	-0.029602	0.022278	-0.019073	0.021973	-0.009003	-0.078735	0.019989	-0.005341	0.014954
